HIERARCHY
ROOT Hips
{
	OFFSET 0.000000 0.000000 0.000000
	CHANNELS 6 Xposition Yposition Zposition Xrotation Yrotation Zrotation
	JOINT LeftUpLeg_virtual
	{
		OFFSET 0.000000 0.000000 0.000000
		CHANNELS 3 Xrotation Yrotation Zrotation
		JOINT LeftUpLeg
		{
			OFFSET 15.427100 -6.655098 0.678600
			CHANNELS 3 Xrotation Yrotation Zrotation
			JOINT LeftLeg
			{
				OFFSET 4.081073 -39.591068 13.024000
				CHANNELS 3 Xrotation Yrotation Zrotation
				JOINT LeftFoot
				{
					OFFSET -4.081074 -37.707932 -15.979700
					CHANNELS 3 Xrotation Yrotation Zrotation
					JOINT LeftToeBase
					{
						OFFSET 5.346399 -15.068900 20.645000
						CHANNELS 3 Xrotation Yrotation Zrotation
						JOINT LeftToe_End
						{
							OFFSET 2.754700 0.931300 11.300900
							CHANNELS 3 Xrotation Yrotation Zrotation
							End Site
							{
								OFFSET 0 0 0
							}
						}
					}
				}
			}
		}
	}
	JOINT RightUpLeg_virtual
	{
		OFFSET 0.000000 0.000000 0.000000
		CHANNELS 3 Xrotation Yrotation Zrotation
		JOINT RightUpLeg
		{
			OFFSET -15.569500 -6.655098 0.678600
			CHANNELS 3 Xrotation Yrotation Zrotation
			JOINT RightLeg
			{
				OFFSET -4.081825 -39.591045 13.023800
				CHANNELS 3 Xrotation Yrotation Zrotation
				JOINT RightFoot
				{
					OFFSET 4.081824 -37.707954 -15.979600
					CHANNELS 3 Xrotation Yrotation Zrotation
					JOINT RightToeBase
					{
						OFFSET -5.346400 -15.068900 20.645000
						CHANNELS 3 Xrotation Yrotation Zrotation
						JOINT RightToe_End
						{
							OFFSET -2.754700 0.931300 11.300900
							CHANNELS 3 Xrotation Yrotation Zrotation
							End Site
							{
								OFFSET 0 0 0
							}
						}
					}
				}
			}
		}
	}
	JOINT Spine_virtual
	{
		OFFSET 0.000000 0.000000 0.000000
		CHANNELS 3 Xrotation Yrotation Zrotation
		JOINT Spine
		{
			OFFSET -0.279200 12.230698 -2.892100
			CHANNELS 3 Xrotation Yrotation Zrotation
			JOINT Spine1
			{
				OFFSET -0.232667 10.192268 -1.242267
				CHANNELS 3 Xrotation Yrotation Zrotation
				JOINT Spine1_split
				{
					OFFSET -0.232667 10.192268 -1.242267
					CHANNELS 3 Xrotation Yrotation Zrotation
					JOINT Spine2
					{
						OFFSET -0.232667 10.192268 -1.242267
						CHANNELS 3 Xrotation Yrotation Zrotation
						JOINT Neck_virtual
						{
							OFFSET 0.000000 0.000000 0.000000
							CHANNELS 3 Xrotation Yrotation Zrotation
							JOINT Neck
							{
								OFFSET -0.418800 17.814194 8.416900
								CHANNELS 3 Xrotation Yrotation Zrotation
								JOINT Head
								{
									OFFSET 0.000000 7.031097 3.806800
									CHANNELS 3 Xrotation Yrotation Zrotation
									JOINT HeadTop_End
									{
										OFFSET 0.000000 24.646606 12.978600
										CHANNELS 3 Xrotation Yrotation Zrotation
										End Site
										{
											OFFSET 0 0 0
										}
									}
								}
							}
						}
						JOINT LeftShoulder_virtual
						{
							OFFSET 0.000000 0.000000 0.000000
							CHANNELS 3 Xrotation Yrotation Zrotation
							JOINT LeftShoulder
							{
								OFFSET 8.476499 7.247704 -3.868750
								CHANNELS 3 Xrotation Yrotation Zrotation
								JOINT LeftShoulder_split
								{
									OFFSET 8.476499 7.247704 -3.868750
									CHANNELS 3 Xrotation Yrotation Zrotation
									JOINT LeftArm
									{
										OFFSET 9.308998 -2.777710 0.208600
										CHANNELS 3 Xrotation Yrotation Zrotation
										JOINT LeftForeArm
										{
											OFFSET 29.972298 0.000000 0.000000
											CHANNELS 3 Xrotation Yrotation Zrotation
											JOINT LeftHand
											{
												OFFSET 26.026505 0.000000 0.000000
												CHANNELS 3 Xrotation Yrotation Zrotation
												End Site
												{
													OFFSET 0 0 0
												}
											}
										}
									}
								}
							}
						}
						JOINT RightShoulder_virtual
						{
							OFFSET 0.000000 0.000000 0.000000
							CHANNELS 3 Xrotation Yrotation Zrotation
							JOINT RightShoulder
							{
								OFFSET -7.570500 7.247704 -3.868750
								CHANNELS 3 Xrotation Yrotation Zrotation
								JOINT RightShoulder_split
								{
									OFFSET -7.570500 7.247704 -3.868750
									CHANNELS 3 Xrotation Yrotation Zrotation
									JOINT RightArm
									{
										OFFSET -9.308998 -2.777710 0.208500
										CHANNELS 3 Xrotation Yrotation Zrotation
										JOINT RightForeArm
										{
											OFFSET -29.972300 0.000000 0.000000
											CHANNELS 3 Xrotation Yrotation Zrotation
											JOINT RightHand
											{
												OFFSET -26.026505 0.000000 0.000000
												CHANNELS 3 Xrotation Yrotation Zrotation
												End Site
												{
													OFFSET 0 0 0
												}
											}
										}
									}
								}
							}
						}
					}
				}
			}
		}
	}
}
MOTION
Frames: 5
Frame Time: 0.03333333
-0.532363 76.496323 -0.288315 0.000000 0.000000 0.000000 1.288249 -61.958750 4.981820 -33.847518 8.358040 31.011497 39.796015 -8.054515 -10.774747 -5.948090 -2.315099 -11.012592 0.250687 0.653189 0.502976 0.000000 0.000000 0.000000 -1.475174 -61.380629 3.810524 -29.992662 -5.842849 -35.432030 48.530212 6.542091 -3.388523 -20.548940 -0.125245 25.857126 2.994109 0.633883 0.461686 0.000000 0.000000 0.000000 -0.668016 -61.592693 2.708663 12.262460 2.307521 -2.717806 8.140997 0.749509 -5.639045 0.176295 -0.354246 1.096386 0.000000 0.000000 0.000000 7.988407 0.324205 -4.365928 -21.029777 21.115545 9.731849 3.557121 27.426239 -2.490965 0.000000 0.000000 0.000000 9.692381 0.267342 -4.982772 -5.192033 -16.300969 -1.597713 -1.937376 -3.757958 1.227291 -23.979695 9.287621 -32.727364 4.204710 -42.110555 0.520384 0.000000 0.000000 0.000000 9.128818 0.540690 -5.428353 -5.250001 14.187269 1.459144 2.785061 -2.944935 3.684744 -32.257942 -22.290901 35.254701 165.050401 69.715659 -161.989097 0.000000 0.000000 0.000000 
-0.843427 76.264862 -0.069691 0.000000 0.000000 0.000000 1.054943 -61.745805 4.690870 -33.790271 8.786968 31.203009 40.432736 -8.646537 -10.666514 -6.828167 -2.539968 -11.390587 -0.304743 0.554723 0.889781 0.000000 0.000000 0.000000 -1.876344 -61.377678 3.296657 -29.529858 -5.751327 -35.512609 49.377097 6.568363 -3.442339 -21.236411 -0.396986 25.415610 4.139121 0.672283 0.460145 0.000000 0.000000 0.000000 -0.925942 -61.610041 2.533203 12.223247 2.111418 -2.653899 7.859717 0.735707 -5.671039 -0.628888 -1.067481 1.636855 0.000000 0.000000 0.000000 7.718314 0.313496 -4.383756 -21.022083 20.559679 10.045747 3.817696 26.443327 -2.344301 0.000000 0.000000 0.000000 9.419761 0.283030 -4.985940 -5.188766 -16.031477 -1.568234 -0.460242 -5.060514 1.020471 -25.324074 9.264658 -33.804935 5.459565 -41.736967 1.628137 0.000000 0.000000 0.000000 8.722343 0.531841 -5.380949 -5.345359 14.072794 1.371313 4.036442 -2.522756 1.911937 -30.721634 -21.568455 35.183882 167.224887 66.495867 -164.170632 0.000000 0.000000 0.000000 
-1.347163 76.017906 0.124680 0.000000 0.000000 0.000000 0.083072 -61.705855 3.602299 -33.540125 8.931884 31.505528 41.535296 -9.382820 -10.583222 -8.371681 -2.466075 -11.483674 -0.904138 0.504248 1.274127 0.000000 0.000000 0.000000 -2.697721 -61.302362 2.176437 -28.048862 -5.718397 -35.529251 50.104915 6.758018 -3.663386 -22.088374 -0.823088 25.611403 4.180508 0.598676 0.392101 0.000000 0.000000 0.000000 -1.842893 -61.455891 1.575609 11.998357 1.983720 -2.388496 7.467529 0.771710 -5.464798 -0.715208 -1.065176 2.003470 0.000000 0.000000 0.000000 7.259476 0.324005 -4.256326 -20.132719 19.539774 10.289581 3.736178 24.917739 -1.684895 0.000000 0.000000 0.000000 8.929394 0.332090 -4.749232 -5.130855 -14.876702 -1.060837 0.439725 -5.614362 0.508528 -25.275969 9.655794 -33.103967 6.663746 -44.343958 3.225473 0.000000 0.000000 0.000000 8.126412 0.494490 -5.128936 -5.400778 12.731777 0.517597 5.711084 -2.243619 0.776484 -25.290886 -20.029004 35.512466 163.264839 62.785640 -160.623455 0.000000 0.000000 0.000000 
-1.984582 75.904144 0.283653 0.000000 0.000000 0.000000 -1.531884 -61.789593 1.854157 -32.886408 8.717195 31.657753 42.535310 -10.104263 -10.482235 -10.007591 -2.126846 -11.196890 -1.532353 0.513914 1.543348 0.000000 0.000000 0.000000 -3.802914 -60.995071 0.667216 -25.576960 -5.918993 -35.500076 50.130447 6.907474 -3.910091 -22.898059 -1.460988 26.124422 3.425291 0.443884 0.332083 0.000000 0.000000 0.000000 -3.154875 -60.998002 0.062540 11.666974 1.926758 -2.025740 7.020241 0.835012 -5.048583 -0.062302 -0.461238 2.179420 0.000000 0.000000 0.000000 6.675668 0.372041 -3.973646 -18.440478 18.188160 10.459781 3.460010 23.205288 -0.778638 0.000000 0.000000 0.000000 8.239538 0.429035 -4.261311 -5.092077 -12.753852 -0.109288 0.775460 -5.531365 0.218944 -23.524334 11.023081 -30.544650 7.659981 -50.062643 5.063221 0.000000 0.000000 0.000000 7.394849 0.438914 -4.687980 -5.515105 10.190903 -0.960140 7.056577 -2.087843 0.026062 -17.496443 -18.167477 36.327075 155.602269 59.808975 -153.832020 0.000000 0.000000 0.000000 
-2.675303 76.124741 0.528351 0.000000 0.000000 0.000000 -3.518897 -61.854630 -0.277846 -31.666359 8.179975 31.507652 42.910629 -10.706573 -10.267144 -11.288056 -1.601120 -10.564593 -2.041183 0.566614 1.579787 0.000000 0.000000 0.000000 -5.083487 -60.432537 -0.975539 -22.102950 -6.536531 -35.278812 48.774791 6.733198 -3.988750 -23.365244 -2.272282 26.483249 2.795072 0.251216 0.315601 0.000000 0.000000 0.000000 -4.665394 -60.283304 -1.724538 11.239192 1.881645 -1.672389 6.496372 0.894348 -4.464507 1.106272 0.340955 2.030493 0.000000 0.000000 0.000000 6.019608 0.434803 -3.542064 -15.893239 16.809142 10.459802 3.176761 21.527040 0.114110 0.000000 0.000000 0.000000 7.421327 0.525357 -3.552587 -5.195983 -9.727809 1.095993 0.426277 -4.759870 -0.223579 -20.576030 13.622646 -26.242768 7.735737 -58.426121 6.382874 0.000000 0.000000 0.000000 6.502460 0.379181 -4.066629 -5.786733 6.630924 -2.876998 7.317525 -2.494919 0.066955 -9.241200 -16.208394 37.316626 145.440764 57.879091 -145.009233 0.000000 0.000000 0.000000 
